# xmcd
# 
# Track frame offsets:
#     150
#     19843
#     43599
#     62345
#     78101
#     97282
#     110610
#     132634
#     144790
#     173995
#     197959
#     215914
#     235951
#     252572
#     272307
#     289396
#     307431
#     333986
# 
# Disc length: 4601
# 
# Revision: 0
# Processed by: cddbd v1.5.2PL0 Copyright (c) Steve Scherf et al.
# Submitted via: fre:ac v1.0.17
# 
DISCID=1c11f712
DTITLE=Paul Personne - The Best of Paul Personne
DYEAR=2005
DGENRE=Blues
TTITLE0=Barjo Land
TTITLE1=Comme un étranger
TTITLE2=T'arrêtes pas d'me manquer
TTITLE3=Bottleneck
TTITLE4=La chance
TTITLE5=Un mec comme moi
TTITLE6=Le bourdon
TTITLE7=Quelqu'un m'appelle
TTITLE8=Faire semblant
TTITLE9=Loco loco
TTITLE10=Plus jamais m'laisser blueser
TTITLE11=Miss Terre
TTITLE12=Plus loin d'ici
TTITLE13=Aphonie cérébrale
TTITLE14=Saoulé
TTITLE15=J'me taille
TTITLE16=Zic
TTITLE17=Horizon
EXTD=
EXTT0=
EXTT1=
EXTT2=
EXTT3=
EXTT4=
EXTT5=
EXTT6=
EXTT7=
EXTT8=
EXTT9=
EXTT10=
EXTT11=
EXTT12=
EXTT13=
EXTT14=
EXTT15=
EXTT16=
EXTT17=
PLAYORDER=
